<svg id="SvgjsSvg1001" width="288" height="288" xmlns="http://www.w3.org/2000/svg" version="1.1" xmlns:xlink="http://www.w3.org/1999/xlink" xmlns:svgjs="http://svgjs.com/svgjs"><defs id="SvgjsDefs1002"></defs><g id="SvgjsG1008"><svg xmlns="http://www.w3.org/2000/svg" version="1.0" viewBox="0 0 2056 1867" width="288" height="288"><g transform="matrix(.1 0 0 -.1 0 1867)"><path d="M9062 18653 c-14 -27 -4842 -11760 -4842 -11767 0 -3 468 -6 1040 -6l1040 0 0 125 0 125 -859 2 -859 3 1009 2450 1008 2450 1171 3 c643 1 1170 -1
1170 -4 0 -7 -489 -1219 -1278 -3169 -519 -1282 -2334 -5777 -2371 -5872 l-21
-53 860 0 860 0 0 120 0 120 -675 0 c-477 0 -675 3 -675 11 0 8 1222 3043
1462 3631 l60 148 2343 0 2342 0 383 -893 c211 -490 414 -964 452 -1052 38
-88 126 -290 194 -450 69 -159 161 -365 206 -457 l81 -167 108 55 c60 30 109
56 109 57 0 2 -83 187 -184 413 l-185 409 992 5 992 5 -903 2155 c-497 1185
-1556 3712 -2354 5615 -798 1903 -1453 3468 -1455 3478 -5 16 74 17 1597 15
l1603 -3 632 -1500 c1354 -3214 3723 -8832 4862 -11535 658 -1559 1198 -2843
1201 -2852 4 -17 -122 -18 -2540 -18 l-2544 0 -636 1418 -637 1417 362 3 c199
2 1057 -2 1907 -7 849 -5 1546 -9 1547 -7 2 2 -4457 10816 -5188 12583 l-34
81 -110 -45 c-61 -25 -111 -46 -113 -48 -2 -2 1140 -2774 2538 -6160 1398
-3386 2539 -6159 2536 -6163 -3 -3 -768 0 -1699 7 -1214 8 -1991 9 -2752 2
-583 -6 -1362 -11 -1731 -11 -369 0 -793 -3 -942 -7 l-272 -6 0 -120 0 -119
938 6 c515 4 1344 7 1841 9 l905 2 691 -1540 692 -1540 2807 -3 c1543 -1 2806
1 2806 5 0 5 -782 1862 -1737 4128 -955 2266 -2509 5952 -3453 8190 l-1715
4070 -808 3 -807 2 -11 24 c-6 13 -208 523 -448 1132 l-436 1109 -1032 3
c-975 2 -1033 1 -1041 -15z m2304 -1238 c217 -550 394 -1003 394 -1007 0 -5
-416 -9 -924 -10 l-924 -3 413 -985 c2134 -5091 4295 -10248 4300 -10262 7
-17 -38 -18 -858 -18 l-864 0 -447 1038 -447 1039 -1687 6 c-928 4 -1996 7
-2374 7 l-687 0 38 93 c21 50 188 463 371 917 405 1007 731 1815 1241 3078
214 529 389 965 389 967 0 3 -585 6 -1299 7 l-1299 3 1261 3067 1262 3068 874
-3 873 -2 394 -1000z" fill="#11a344" class="svgShape color000000-1 selectable"></path><path d="M4178 10333 c-1382 -3421 -1865 -4616 -3025 -7488 -625 -1545 -1138
-2818 -1141 -2828 -4 -16 156 -17 3298 -15 l3302 3 918 2440 917 2440 1164 7
c640 5 1440 11 1777 14 l612 6 0 121 0 120 -1407 -7 c-775 -3 -1613 -9 -1863
-12 l-455 -7 -916 -2436 -916 -2436 -3037 -3 c-2748 -2 -3038 -1 -3032 14 7
18 2338 5791 3257 8064 358 888 842 2085 1074 2660 l422 1045 381 3 382 2 0
120 0 120 -463 0 -463 0 -786 -1947z" fill="#02ec50" class="svgShape color000000-2 selectable"></path></g></svg></g></svg>